<svg width="862" height="1054" viewBox="0 0 862 1054" fill="none" xmlns="http://www.w3.org/2000/svg">
<path fill-rule="evenodd" clip-rule="evenodd" d="M473.76 294.4C535.162 294.4 584.95 244.623 584.95 183.21C584.95 121.796 535.173 72.02 473.76 72.02C412.346 72.02 362.56 121.809 362.56 183.21C362.556 244.616 412.345 294.4 473.76 294.4ZM275.37 618.13C275.37 578.47 243.21 546.345 203.585 546.345C163.937 546.345 131.8 578.482 131.8 618.13C131.8 657.778 163.948 689.915 203.585 689.915C243.222 689.911 275.37 657.778 275.37 618.13ZM306.163 833.61C305.694 820.973 308.491 811.649 317.804 802.555C350.156 770.864 377.706 735.617 392.324 691.875C400.23 668.246 404.445 643.828 406.148 619.059C406.425 615.063 405.882 611.235 404.816 607.563C402.5 599.704 392.457 590.977 390.019 589.946C377.996 584.821 372.812 587.93 364.316 602.63C353.55 621.22 344.492 640.79 333.668 659.329C308.289 702.731 276.691 738.841 223.628 748.083C214.593 749.642 204.562 749.681 195.44 749.235C183.631 748.622 170.838 745.517 159.897 741.146C117.502 724.201 91.233 683.775 62.252 650.88C57.6543 645.637 53.3106 640.176 48.357 635.305C40.0875 627.098 30.919 622.154 19.412 626.7C8.13097 631.165 2.22796 640.391 1.08796 652.2C0.115302 662.184 4.09966 672.43 7.70126 681.516C15.381 700.969 27.6463 719.184 40.5213 735.481C45.6697 741.962 50.9623 748.286 56.3613 754.524C66.2363 765.864 76.5332 776.786 87.1312 787.454C96.8265 797.212 106.619 808.692 118.018 816.493C123.596 820.333 130.87 834.278 131.264 842.259C132.967 875.404 134.96 896.513 136.327 929.642C138.018 971.029 140.549 1012.36 144.065 1053.59C173.381 1038.9 262.285 982.877 308.795 926.052C308.272 895.247 307.299 864.419 306.158 833.603L306.163 833.61ZM530.873 594.44C530.103 575.733 522.603 533.96 542.143 521.85C561.788 509.635 595.459 517.194 617.467 516.284C642.174 515.252 666.776 511.807 690.643 505.268C705.522 501.19 726.127 499.58 737.936 488.6C753.846 473.838 748.065 442.604 738.596 425.924C728.42 407.983 708.717 407.119 690.08 405.666C660.943 403.423 632.142 398.873 603.428 393.498C515.42 377.045 429.528 353.189 356.628 298.951C297.851 255.213 265.382 194.071 238.188 128.791C222.504 91.1816 207.961 53.0486 187.993 17.3806C180.54 4.04462 168.481 -1.00638 153.54 0.708622C138.767 2.42342 131.161 12.0246 126.286 25.0676C121.103 38.8916 121.224 53.3016 122.075 67.5016C123.888 98.2716 128.04 128.904 134.614 159.014C145.954 211.311 164.36 261.774 188.649 309.444C207.547 346.549 237.008 378.889 248.672 419.484C256.438 446.593 257.973 477.347 257.864 507.601C298.665 527.691 326.829 569.558 326.829 618.111C326.829 625.478 326.133 632.689 324.883 639.701C328.016 633.978 331.184 628.314 334.184 622.517C339.176 612.954 344.133 603.388 349.555 594.076C354.309 585.857 363.114 570.58 380.934 570.58C387.137 570.58 393.079 572.474 399.559 575.56C401.766 576.603 412.184 583.193 416.997 591.486C420.923 598.256 424.208 607.818 423.2 620.201C420.896 648.377 416.431 673.588 408.489 697.275C394.821 738.134 369.813 775.478 329.719 814.745C324.461 819.87 322.891 824.296 323.215 832.972C324.356 863.898 325.364 894.843 325.856 925.769L325.977 932.371C325.977 932.371 310.832 949.219 305.278 955.039C388.173 1025.49 632.178 930.426 605.278 905.238C588.048 889.086 532.872 641.948 530.88 594.438L530.873 594.44ZM827.973 524.143C819.489 538.831 812.313 554.299 803.735 568.952C783.696 603.284 758.712 631.796 716.758 639.128C709.606 640.374 701.711 640.39 694.512 640.026C685.164 639.558 675.059 637.097 666.407 633.632C632.891 620.241 612.13 588.284 589.223 562.28C585.586 558.163 582.145 553.842 578.254 549.979C571.664 543.498 564.453 539.6 555.332 543.186C546.43 546.725 541.785 554.01 540.848 563.37C540.09 571.241 543.235 579.343 546.078 586.53C552.149 601.878 561.848 616.292 572.047 629.19C576.102 634.327 625.387 689.948 647.957 793.06C659.703 846.665 647.887 895.72 647.957 896.49C671.141 884.873 745.805 865.58 784.107 855.967C783.686 831.631 782.885 731.107 781.994 706.737C781.623 696.776 783.818 689.397 791.186 682.198C816.756 657.143 838.573 629.303 850.108 594.706C856.346 576.022 861.053 556.784 861.053 537.144C861.064 515.937 836.057 510.187 827.971 524.144L827.973 524.143ZM697.893 521.537C673.569 521.045 644.288 544.71 648.346 573.112C652.401 601.311 670.545 624.701 697.893 624.701C725.264 624.701 747.463 601.589 747.463 573.112C747.467 544.628 729.658 522.162 697.893 521.537Z" fill="#4C9FA3"/>
</svg>
