<svg width="1200" height="724" viewBox="0 0 1200 724" fill="none" xmlns="http://www.w3.org/2000/svg">
<path d="M658.29 712.99C658.29 712.99 641.083 723.431 618.474 723.431C590.884 723.431 567.966 700.572 567.966 679.224C567.966 632.978 614.2 628.966 614.2 628.966C614.2 628.966 496.75 357.376 691.251 430.186C691.274 430.295 691.251 621.116 691.251 621.116C677.993 621.116 621.903 652.268 658.29 712.987V712.99ZM673.47 170.17C687.845 139.365 721.876 71.229 737.884 78.826C737.884 78.826 685.216 188.716 685.216 202.656C685.216 216.433 690.423 247.344 709.923 275.75C727.611 301.527 762.146 332.246 826.323 332.246C943.463 332.246 967.413 230.036 967.413 202.656C967.413 189.601 914.479 78.946 914.479 78.946C930.342 70.3171 964.737 139.161 979.217 170.169C994.205 202.294 1039.18 219.415 1039.18 145.521C1039.18 73.486 959.936 5.231 932.092 0.931004C911.514 -2.237 894.494 15.677 887.908 24.306C871.154 16.974 850.779 13.372 826.154 13.372C801.396 13.372 780.939 17.0087 764.138 24.399C757.345 15.4967 740.798 -2.179 720.591 0.925999C692.751 5.2112 613.491 73.477 613.491 145.516C613.499 219.414 658.487 202.282 673.475 170.168L673.47 170.17ZM933.76 628.97V313.3C897.69 353.585 826.33 354.929 826.33 354.929C826.33 354.929 754.978 353.597 718.89 313.3V628.97C718.89 628.97 672.656 632.99 672.656 679.228C672.656 700.564 695.578 723.435 723.164 723.435C780.43 723.435 811.34 701.33 811.34 662.451V511.071C811.785 504.387 814.594 496.79 826.485 496.79C837.79 496.79 840.692 504.927 841.294 510.517V662.467C841.294 702.26 872.204 723.451 929.482 723.451C957.084 723.451 979.99 700.592 979.99 679.244C979.978 632.994 933.756 628.974 933.756 628.974L933.76 628.97ZM1200 417.78C1200 417.78 1171.94 499.69 1072.87 471.803C1068.41 428.35 1041.09 400.342 961.39 430.174C961.367 430.283 961.378 621.104 961.378 621.104C974.651 621.104 1030.74 652.268 994.355 712.975C994.355 712.975 1011.55 723.416 1034.16 723.416C1061.76 723.416 1084.68 700.557 1084.68 679.209C1084.68 632.963 1038.43 628.951 1038.43 628.951C1038.43 628.951 1047.18 608.721 1055.94 580.795C1074.35 575.67 1192.82 537.979 1200 417.775L1200 417.78ZM174.3 300.03C174.3 363.823 236.425 415.54 313.1 415.54C389.745 415.54 451.89 363.821 451.89 300.03C451.89 288.464 449.8 277.264 445.999 266.706C453.523 242.792 462.222 191.284 428.612 127.666L363.753 192.49C348.058 187.365 278.132 187.365 262.413 192.49L197.577 127.666C163.952 191.291 172.651 242.796 180.19 266.706C176.354 277.257 174.292 288.464 174.292 300.03H174.3ZM415.11 632.29V402.17C415.11 402.17 386.551 438.049 311.49 438.049C236.404 438.049 207.83 402.17 207.83 402.17V632.31C207.83 632.31 163.252 636.185 163.252 680.814C163.252 701.392 185.346 723.451 211.971 723.451C267.217 723.451 297.049 703.025 297.049 664.639V591.405C267.361 585.057 245.111 558.671 245.111 527.12C248.759 559.952 277.006 578.167 310.857 578.167C344.673 578.167 372.919 559.952 376.568 527.12C376.568 558.261 354.955 584.311 325.916 591.104V664.639C325.916 702.127 355.713 723.451 410.982 723.451C437.599 723.451 459.701 701.396 459.701 680.814C459.701 636.185 415.107 632.298 415.107 632.298L415.11 632.29ZM439.7 445.14C439.665 445.238 439.665 623.1 439.665 623.1C452.013 623.1 504.321 652.116 470.384 708.733C470.384 708.733 474.478 718.44 488.54 718.44C514.243 718.44 528.438 697.139 528.438 677.221C528.438 634.143 485.344 630.42 485.344 630.42C485.348 630.416 620.944 377.27 439.699 445.14H439.7ZM183.3 623.1C183.3 623.1 183.3 445.24 183.265 445.14C109.574 417.55 88.2378 443.05 88.8978 482.988C57.2648 459.144 67.5028 404.734 88.2377 355.068C113.066 295.705 117.433 250.538 101.558 216.998C89.5107 191.521 66.8667 174.111 32.2687 163.728C19.0347 159.779 5.10067 167.279 1.11667 180.529C-2.85603 193.775 4.60887 207.912 17.9057 211.681C79.6087 229.189 60.5537 291.505 42.0387 335.761C13.8937 403.144 11.6127 457.401 35.2653 497.021C53.6243 527.74 82.8313 541.025 101.792 546.654C116.202 590.502 137.601 630.416 137.601 630.416C137.601 630.416 94.4963 634.147 94.4963 677.217C94.4963 697.123 108.668 718.436 134.422 718.436C148.438 718.436 152.567 708.729 152.567 708.729C118.645 652.124 170.903 623.108 183.301 623.108L183.3 623.1Z" fill="#4C9FA3"/>
</svg>
