<svg width="1200" height="1200" viewBox="0 0 1200 1200" fill="none" xmlns="http://www.w3.org/2000/svg">
<path d="M780 411.79C780 364.935 761.449 319.985 728.402 286.77C695.355 253.551 650.504 234.77 603.652 234.532C556.797 234.29 511.754 252.61 478.362 285.485C444.979 318.36 425.964 363.114 425.483 409.965C425.003 456.817 443.088 501.957 475.792 535.515C508.491 569.07 553.151 588.312 600.002 589.035C647.357 589.336 692.897 570.844 726.642 537.621C760.384 504.394 779.576 459.144 780.005 411.791L780 411.79ZM457.35 411.79C457.768 374.352 473.026 338.61 499.772 312.411C526.514 286.212 562.561 271.696 600.002 272.044C637.463 271.431 673.6 285.884 700.302 312.157C727.009 338.427 742.048 374.325 742.048 411.79C742.048 449.251 727.009 485.149 700.302 511.423C673.595 537.696 637.458 552.146 600.002 551.532C562.592 551.841 526.584 537.305 499.872 511.11C473.161 484.915 457.927 449.2 457.505 411.79H457.35ZM275.87 411.79C293.515 -9.94 906.26 -10.09 923.98 411.79C923.98 478.614 873.523 584.46 778.05 717.88C744.956 764.36 708.507 810.618 672.09 854.76C648.297 883.522 628.477 906.362 616.328 920.143L616.324 920.139C612.07 924.67 606.133 927.241 599.918 927.241C593.703 927.241 587.766 924.67 583.512 920.139C476.482 802.989 268.682 528.889 275.942 411.789L275.87 411.79ZM928.55 1097.93C924.402 1103.25 917.999 1106.34 911.245 1106.25H288.745C282.018 1106.31 275.651 1103.23 271.515 1097.93C267.574 1093 266.183 1086.5 267.765 1080.4L328.253 842.649C329.48 838.047 332.21 833.985 336.007 831.11C339.804 828.235 344.452 826.704 349.214 826.766H446.245C465.425 827.649 472.925 850.243 485.132 861.996C507.933 890.121 539.038 926.629 555.444 945.078C566.784 957.703 582.952 964.918 599.921 964.918C616.89 964.918 633.058 957.703 644.394 945.078C666.652 920.086 707.339 871.766 733.605 838.528H733.609C737.843 831.47 745.371 827.044 753.597 826.77H850.742H850.738C855.504 826.708 860.148 828.239 863.945 831.114C867.742 833.989 870.472 838.051 871.703 842.653L932.191 1080.4C933.804 1086.49 932.456 1092.99 928.55 1097.93L928.55 1097.93Z" fill="#4C9FA3"/>
</svg>
