<svg width="784" height="980" viewBox="0 0 784 980" fill="none" xmlns="http://www.w3.org/2000/svg">
<path d="M546.04 1.54002C563.173 2.37986 565.052 8.09862 562.427 25.419C539.587 174.019 541.255 342.899 575.134 491.179L522.759 491.257C509.638 491.335 510.759 490.058 508.587 482.296C503.255 463.202 496.653 442.296 482.825 432.71C469.212 423.202 453.946 418.39 440.317 421.312L273.867 457.019C232.535 353.819 202.535 245.769 195.613 114.509C194.359 90.3372 194.707 80.2162 212.332 67.7082C315.122 3.12224 435.882 -4.03776 546.042 1.53624L546.04 1.54002Z" fill="#4C9FA3"/>
<path d="M705 95.13C718.172 99.8488 715.547 103.384 710.961 113.743C657.629 235.253 638.039 370.133 618.121 491.093L598.949 491.171C573.164 364.221 565.336 208.411 576.242 82.5012C619.574 76.091 663.387 80.1301 705.002 95.1302L705 95.13Z" fill="#4C9FA3"/>
<path d="M701.79 196.67C730.751 200.217 759.005 215.135 779.364 234.565C786.657 241.671 782.829 245.604 780.044 248.057C736.376 286.123 697.966 341.229 664.584 402.377H651.717C665.209 323.881 683.756 254.927 701.795 196.667L701.79 196.67Z" fill="#4C9FA3"/>
<path d="M442.84 444.59C467.84 439.977 482.559 461.231 484.785 480.602L506.918 676.222C506.918 691.167 497.824 705.41 481.785 713.62C465.746 721.741 445.332 721.741 429.359 713.675C414.281 706.05 409 691.796 404.078 673.409L377.199 564.089C373.238 548.05 356.574 549.503 359.492 565.343L389.906 726.953C396.851 763.887 352.48 822.141 265.866 808.672C249.557 804.925 252.264 828.539 268.987 829.926C323.573 838.472 362.108 819.379 387.947 793.754C387.615 809.301 391.853 824.926 398.654 838.262C404.068 848.887 411.853 857.688 421.08 864.141C411.865 870.621 404.002 879.379 398.533 890.047C386.787 912.832 386.455 940.672 398.455 963.246C403.377 972.621 405.963 979.643 395.4 979.643L256.71 979.565C239.776 979.487 229.71 975.444 221.495 968.858C213.323 962.351 206.909 952.764 200.401 941.35C198.323 937.737 194.413 935.511 190.241 935.511H169.909C154.776 935.511 153.655 928.511 155.87 915.976C174.284 812.886 179.483 719.256 154.777 619.936C151.085 605.295 151.577 604.881 161.085 593.975L234.913 508.92C252.487 488.682 266.581 477.119 299.366 471.053L442.84 444.59Z" fill="#4C9FA3"/>
<path d="M668.88 514.45C684.095 514.45 698.388 523.384 706.505 539.212C714.626 555.064 714.571 575.118 706.45 590.958C701.372 600.825 694.075 610.626 679.157 610.692L523.037 611.239L512.131 514.626L668.88 514.45Z" fill="#4C9FA3"/>
<path d="M2.62 590.76C44.288 718.14 35.327 829.72 3.11218 967.59C0.244983 979.778 5.73718 979.668 13.1122 979.668H100.62C115.339 979.668 116.382 979.016 118.952 967.723C149.913 833.273 158.671 724.313 121.874 600.773C115.046 577.851 110.886 579.105 86.4601 579.105H11.1011C-2.87191 579.089 -0.296909 581.742 2.62059 590.757L2.62 590.76Z" fill="#4C9FA3"/>
<path d="M649.71 634.17C664.925 634.092 679.296 643.131 687.335 658.932C695.456 674.772 695.456 694.772 687.28 710.705C679.081 726.584 664.706 736.385 649.573 735.705L520.403 729.557C514.911 729.342 512.95 720.838 516.083 715.385C523.243 703.037 531.989 690.623 530.321 676.213L525.653 634.361L649.71 634.17Z" fill="#4C9FA3"/>
<path d="M453.95 749.79C514.364 752.337 574.83 756.536 635.26 759.138C650.42 759.845 664.795 768.099 672.912 783.95C681.033 799.762 680.967 819.762 672.752 835.696C664.631 851.575 650.127 860.591 634.99 860.669L458.54 852.43C458.048 852.43 457.633 852.352 457.141 852.43C441.926 852.43 427.555 843.47 419.516 827.645C410.969 810.977 408.477 789.579 416.102 774.778C424.298 758.883 438.75 749.176 453.95 749.79L453.95 749.79Z" fill="#4C9FA3"/>
<path d="M457.13 875.76L625.74 883.6C632.127 887.838 637.74 893.815 641.779 901.666C649.834 917.478 649.834 937.627 641.646 953.467C633.525 969.346 618.724 978.252 605.607 978.252L462.487 978.611C443.581 978.666 426.499 966.373 419.288 952.545C411.034 936.783 411.167 916.666 419.366 900.744C427.542 884.865 441.917 875.838 457.128 875.76L457.13 875.76Z" fill="#4C9FA3"/>
</svg>
